# xmcd
#
# Track frame offsets: 
#        150
#        11023
#        24030
#        35951
#        68064
#        80605
#        90781
#        111059
#        121987
#        131349
#        147177
#        169343
#        182878
#
# Disc length: 2659 seconds
#
# Revision: 0
# Processed by: cddbd v1.5.2PL0 Copyright (c) Steve Scherf et al.
# Submitted via: ExactAudioCopyFreeDBPlugin 1.0
#
DISCID=a30a610d
DTITLE=Ruby Hornsby - Mountain Soul
DYEAR=2019
DGENRE=Bluegrass
TTITLE0=Pretty Bird
TTITLE1=Yor're Too Slow
TTITLE2=Back Country Road
TTITLE3=Give An Inch
TTITLE4=Gotta Make Hay
TTITLE5=Coal Train
TTITLE6=West Virginia, My Home
TTITLE7=Pretty Little Thing
TTITLE8=If Your Don't Answer
TTITLE9=Coal Runs Out
TTITLE10=Mountain Dew
TTITLE11=Pretty Saro
TTITLE12=High On A Mountain Top
EXTD=
EXTT0=
EXTT1=
EXTT2=
EXTT3=
EXTT4=
EXTT5=
EXTT6=
EXTT7=
EXTT8=
EXTT9=
EXTT10=
EXTT11=
EXTT12=
PLAYORDER=
